PathFileType	4	(X/Y/Z)	C:\Users\xlb\Desktop\20210112\20210112\bx_n_10_502.trc
DataRate	CameraRate	NumFrames	NumMarkers	Units	OrigDataRate	OrigDataStartFrame	OrigNumFrames
50.00	50.00	       4	43	mm	50.00	60	       473
Frame#	Time	Top.Head			R.Acromium			L.Acromium			Sternum			R.ASIS			L.ASIS			V.Sacral			R.Thigh.Upper			R.Thigh.Front			R.Thigh.Rear			R.Knee.Lat			R.Knee.Med			R.Shank.Upper			R.Shank.Front			R.Shank.Rear			R.Ankle.Lat			R.Midfoot.Lat			R.Toe.Lat			R.Toe.Tip			R.Toe.Med			R.Ankle.Med			R.Midfoot.Sup			R.Heel			L.Thigh.Upper			L.Thigh.Front			L.Thigh.Rear			L.Knee.Lat			L.Knee.Med			L.Shank.Upper			L.Shank.Front			L.Shank.Rear			L.Ankle.Lat			L.Midfoot.Lat			L.Toe.Lat			L.Toe.Tip			L.Toe.Med			L.Ankle.Med			L.Midfoot.Sup			L.Heel			origin1 front left			origin2 front right			origin 3 back right			origin 4 back leftt			
		X1	Y1	Z1	X2	Y2	Z2	X3	Y3	Z3	X4	Y4	Z4	X5	Y5	Z5	X6	Y6	Z6	X7	Y7	Z7	X8	Y8	Z8	X9	Y9	Z9	X10	Y10	Z10	X11	Y11	Z11	X12	Y12	Z12	X13	Y13	Z13	X14	Y14	Z14	X15	Y15	Z15	X16	Y16	Z16	X17	Y17	Z17	X18	Y18	Z18	X19	Y19	Z19	X20	Y20	Z20	X21	Y21	Z21	X22	Y22	Z22	X23	Y23	Z23	X24	Y24	Z24	X25	Y25	Z25	X26	Y26	Z26	X27	Y27	Z27	X28	Y28	Z28	X29	Y29	Z29	X30	Y30	Z30	X31	Y31	Z31	X32	Y32	Z32	X33	Y33	Z33	X34	Y34	Z34	X35	Y35	Z35	X36	Y36	Z36	X37	Y37	Z37	X38	Y38	Z38	X39	Y39	Z39	X40	Y40	Z40	X41	Y41	Z41	X42	Y42	Z42	X43	Y43	Z43	

60	1.180	-545.49353	135.44185	1829.03223	-637.08490	-61.57850	1533.38818	-659.57465	300.34555	1526.34387	-581.91040	114.51554	1341.55591	-608.74194	1.78943	1056.06860	-616.35870	248.42186	1066.98303	-811.73029	101.20570	1054.85266	-670.66852	-67.62978	875.62482	-592.72040	-1.56257	809.64142	-689.41394	-56.06273	760.40350	-707.12952	-30.48655	618.01855	-688.57239	77.96310	574.87341	-713.32117	-28.33943	570.46991	-662.22662	19.34629	520.15039	-758.10431	-39.71560	490.46817	-758.30450	-18.77694	207.55733	-649.43536	-69.08395	160.97142	-607.45190	-76.23003	157.16191	-549.27277	-30.10946	164.24031	-597.32129	25.01179	167.62657	-716.25372	69.68744	215.71922	-671.79773	52.64746	159.64287	-790.68237	40.18531	174.41739	-696.98169	290.70703	873.43707	-592.86871	220.00717	818.40179	-702.80603	274.52560	744.20422	-730.90955	253.65456	642.25348	-690.31238	146.99748	578.46405	-731.47125	249.02327	576.46893	-677.01923	208.10684	535.56030	-771.19843	258.32809	501.87042	-767.68231	226.29269	205.21361	-660.92871	298.54340	157.61810	-624.33667	306.85263	158.50903	-555.52228	257.45645	164.51898	-591.20996	219.83142	174.15131	-710.98273	153.67014	216.84648	-673.92322	171.68665	157.59846	-794.72015	176.85789	183.40752	-528.07013	304.34653	146.49835	-517.47638	-72.96395	143.00291	-875.90753	-78.82274	141.24463	-882.52527	296.05814	144.61407	
61	1.200	-535.49475	135.40543	1826.41333	-632.54877	-61.64632	1532.73438	-654.47607	300.35092	1525.89075	-580.63593	114.14987	1339.83386	-612.16663	1.82735	1055.40808	-618.83734	247.98477	1066.92993	-814.58862	101.30296	1055.86096	-674.21240	-67.82632	875.85028	-595.73383	-2.09391	809.84448	-692.48584	-56.17659	760.46063	-709.46411	-30.46771	617.77478	-690.13190	77.84515	574.89001	-715.01306	-28.47284	570.49652	-663.66479	19.16967	520.42249	-759.44604	-39.71012	490.33160	-758.44696	-18.81926	207.42332	-649.48096	-69.07263	160.91634	-607.42969	-76.22023	157.17166	-549.33453	-30.02649	164.26318	-597.32727	24.96049	167.73228	-716.29468	69.55890	215.72932	-671.81396	52.51951	159.61212	-790.72803	40.18121	174.29842	-699.83234	290.26563	873.44550	-595.49701	219.97813	818.63379	-705.26440	274.47363	744.24127	-732.85864	253.58963	642.19031	-691.57178	146.93787	578.41248	-733.10138	248.95636	576.41541	-678.34552	208.09557	535.71521	-772.43488	258.36249	501.71625	-767.73682	226.28633	205.11649	-660.91473	298.57874	157.61325	-624.38867	306.86423	158.48795	-555.53729	257.44885	164.55478	-591.30133	219.88232	174.23206	-711.13971	153.75153	216.90868	-673.93677	171.74461	157.63893	-794.77136	176.92218	183.36523	-528.07092	304.29300	146.49352	-517.46460	-73.00374	142.98802	-875.94043	-78.86777	141.21153	-882.52344	296.05017	144.60645	
62	1.220	-525.08728	135.32967	1823.41418	-627.66418	-61.74430	1531.86816	-649.09528	300.33380	1525.16858	-579.23407	113.79401	1337.93176	-615.66260	1.63945	1054.88757	-621.53357	247.53305	1066.73181	-817.62549	101.39104	1056.99878	-677.99280	-68.00907	876.03015	-598.90143	-2.60919	810.09033	-695.71753	-56.28682	760.49139	-711.81555	-30.46520	617.52222	-691.78918	77.72167	574.85950	-716.81860	-28.55195	570.48859	-665.00922	19.10483	520.76355	-760.80493	-39.77646	490.18738	-758.61243	-18.83902	207.21780	-649.48175	-69.03373	160.83324	-607.40912	-76.21323	157.16385	-549.44110	-29.97419	164.28641	-597.34515	24.87720	167.85066	-716.32239	69.44933	215.77356	-671.82275	52.47264	159.61758	-790.79047	40.15746	174.18005	-702.84161	289.88110	873.53540	-598.32770	219.90344	818.78577	-707.89392	274.40427	744.26898	-734.96820	253.58789	642.10309	-693.18494	146.89948	578.37433	-734.85754	248.95259	576.36768	-679.82574	208.10951	535.78723	-773.77252	258.44437	501.51422	-767.79340	226.31326	204.99138	-660.89557	298.61993	157.60541	-624.40839	306.88812	158.48355	-555.57135	257.42761	164.58601	-591.39374	219.95351	174.35663	-711.32806	153.88493	216.92599	-673.93298	171.77496	157.77548	-794.82159	176.98198	183.33533	-528.06702	304.24625	146.49594	-517.45728	-73.02304	142.97299	-875.96948	-78.87858	141.19576	-882.50854	296.06168	144.61928	
63	1.240	-514.33380	135.18678	1820.05176	-622.46588	-61.81480	1530.74646	-643.46954	300.16342	1524.06458	-577.72211	113.43107	1335.82495	-619.07892	1.11857	1054.62695	-624.47620	247.15747	1066.39783	-820.80072	101.46076	1058.22363	-681.94415	-68.19653	876.15826	-602.24554	-3.05404	810.39008	-698.99713	-56.45002	760.52789	-714.00635	-30.51519	617.36005	-693.55365	77.59566	574.81146	-718.71930	-28.61199	570.50348	-666.33911	19.14417	521.08997	-762.20361	-39.90641	490.04440	-758.81323	-18.82907	206.92828	-649.46161	-69.00745	160.76573	-607.41443	-76.21272	157.15045	-549.57678	-29.96086	164.30537	-597.38464	24.76064	167.97330	-716.36670	69.34110	215.84482	-671.81696	52.48029	159.65477	-790.87531	40.10146	174.08499	-705.98492	289.56674	873.71515	-601.35040	219.80435	818.89069	-710.66974	274.35324	744.27832	-737.22595	253.65770	642.00781	-695.08618	146.87180	578.37048	-736.71484	249.01350	576.31335	-681.43408	208.14040	535.83319	-775.22424	258.55170	501.28824	-767.86212	226.37532	204.84883	-660.89069	298.65897	157.57057	-624.40027	306.92572	158.49609	-555.62793	257.38818	164.60904	-591.47302	220.02444	174.47833	-711.51428	154.04924	216.91176	-673.92291	171.79633	157.96710	-794.86523	177.03120	183.32097	-528.06317	304.22742	146.49809	-517.50433	-73.04009	142.96638	-875.98248	-78.85963	141.21835	-882.50867	296.07675	144.62196	
